<?xml version="1.0" standalone="no"?>
<!DOCTYPE svg PUBLIC "-//W3C//DTD SVG 20010904//EN"
 "http://www.w3.org/TR/2001/REC-SVG-20010904/DTD/svg10.dtd">
<svg version="1.0" xmlns="http://www.w3.org/2000/svg"
 width="500.000000pt" height="500.000000pt" viewBox="0 0 500.000000 500.000000"
 preserveAspectRatio="xMidYMid meet">
<metadata>
Created by potrace 1.14, written by Peter Selinger 2001-2017
</metadata>
<g transform="translate(0.000000,500.000000) scale(0.100000,-0.100000)"
fill="#000000" stroke="none">
<path d="M760 2500 l0 -480 1740 0 1740 0 0 480 0 480 -1740 0 -1740 0 0 -480z
m3450 0 l0 -450 -1715 0 -1715 0 0 450 0 450 1715 0 1715 0 0 -450z"/>
<path d="M860 2485 l0 -405 1640 0 1640 0 0 405 0 405 -1640 0 -1640 0 0 -405z
m797 247 c18 -11 -8 -57 -32 -57 -16 0 -21 -8 -23 -42 -3 -40 -1 -43 22 -43
22 0 26 -4 26 -30 0 -25 -4 -30 -25 -30 -25 0 -25 -1 -25 -80 l0 -80 -40 0
-40 0 0 80 c0 64 -3 80 -15 80 -10 0 -15 10 -15 30 0 19 5 30 14 30 9 0 15 17
18 50 7 65 37 100 87 100 20 0 41 -4 48 -8z m86 -154 c4 -10 7 -10 18 0 13 12
81 17 92 6 3 -4 0 -19 -9 -35 -12 -24 -19 -28 -43 -23 -41 8 -61 -24 -61 -98
l0 -58 -35 0 -35 0 0 110 0 110 34 0 c19 0 36 -6 39 -12z m328 -17 c19 -20 29
-40 29 -60 l0 -31 -80 0 c-85 0 -97 -8 -54 -37 24 -15 29 -16 53 -2 20 12 33
13 49 6 41 -18 22 -50 -39 -67 -48 -14 -95 -2 -129 32 -25 24 -30 38 -30 76 1
73 44 112 123 112 40 0 53 -5 78 -29z m244 13 c22 -14 45 -60 45 -90 0 -11
-19 -14 -80 -14 -84 0 -97 -8 -55 -36 21 -14 28 -14 53 -2 28 14 72 6 72 -13
0 -16 -33 -39 -71 -49 -68 -19 -128 12 -149 76 -15 43 1 96 37 124 32 25 113
27 148 4z m285 11 c0 -3 -23 -39 -50 -80 l-51 -75 51 0 c49 0 50 -1 50 -30 l0
-30 -114 0 -115 0 55 80 55 80 -45 0 c-44 0 -46 1 -46 30 l0 30 105 0 c58 0
105 -2 105 -5z m246 -29 c27 -27 34 -42 34 -74 0 -80 -83 -135 -169 -112 -80
21 -113 99 -71 168 25 40 49 51 119 51 47 1 57 -3 87 -33z"/>
<path d="M1966 2538 c-28 -16 -18 -28 24 -28 30 0 38 3 34 14 -7 18 -37 26
-58 14z"/>
<path d="M2228 2543 c-9 -2 -19 -11 -22 -19 -4 -11 4 -14 34 -14 22 0 40 4 40
10 0 13 -32 27 -52 23z"/>
<path d="M2716 2514 c-32 -31 -11 -84 32 -84 35 0 52 17 52 52 0 43 -53 64
-84 32z"/>
</g>
</svg>
